# xmcd CD database file
#
# Track frame offsets:
#	150
#	15704
#	38607
#	56018
#	74462
#	88113
#	111455
#	132302
#	154059
#
# Disc length: 2237 seconds
#
# Revision: 0
# Processed by: cddbd v1.5.2PL0 Copyright (c) Steve Scherf et al.
# Submitted via: CDex 1.70beta2
#
DISCID=7908bb09
DTITLE=Heal The BLUES - Heal The BLUES
DYEAR=2009
DGENRE=Rhythmic Soul
TTITLE0=My very privaye own family blues (Family Blues)
TTITLE1=Si proche de moi
TTITLE2=I never play a song the same way twice (Bad girl)
TTITLE3=Try me
TTITLE4=Tu me tortures
TTITLE5=Heal the blues
TTITLE6=I've got to go
TTITLE7=No name
TTITLE8=IX (Mother)
EXTD=YEAR: 2009
EXTT0=
EXTT1=
EXTT2=
EXTT3=
EXTT4=
EXTT5=
EXTT6=
EXTT7=
EXTT8=
PLAYORDER=
